<svg height="110px" style="enable-background:new 0 0 110 110;" version="1.1" viewBox="0 0 110 110"
     width="110px" x="0px" xml:space="preserve" xmlns="http://www.w3.org/2000/svg" y="0px"><rect height="110" id="svgEditorBackground" style="fill: none; stroke: none;" width="110" x="0" y="0"/>
  id="plocha_1" style="width: 110px; height: 110px;"&gt;


  <rect fill="none" height="36" stroke="black" stroke-width="6" width="36" x="71" y="3"/>
  <text font-family="verdana" font-size="12" x="89" y="54"/>
  <text font-family="verdana" font-size="12" x="21" y="122"/>
  <polyline fill="none" points="33.72792206135786,76.27207793864214 61.80761184457488,48.19238815542512"
            stroke="white" stroke-width="4"/>
  <polyline fill="none" points="33.72792206135786,76.27207793864214 61.80761184457488,48.19238815542512"
            stroke="black" stroke-width="6"/>
  <polygon fill="black" points="71,39 65.6966991411009,54.90990257669732 55.09009742330268,44.30330085889911 "
           stroke="black"/>
  <circle cx="21" cy="89" fill="none" r="18" stroke="black" stroke-width="6"/>
  <text font-family="verdana" font-size="12" x="21" y="95"/>
  <circle cx="78.84169006347656" cy="76.0749282836914" fill="none" id="e1_circle" r="18" stroke="black"
          stroke-width="6"/>
  <circle cx="349.582" cy="337.1" id="e2_circle" r="18" stroke="black" stroke-width="6"
          style="fill:black;" transform="matrix(0.133811 0 0 0.133811 25.3034 24.6653)"/>
  <circle cx="450.516" cy="336.646" id="e3_circle" r="18" stroke="black" stroke-width="6"
          style="fill:black;" transform="matrix(0.133811 0 0 0.133811 25.3034 24.6653)"/>
  <circle cx="450.747" cy="430.729" id="e4_circle" r="18" stroke="black" stroke-width="6"
          style="fill:black;" transform="matrix(0.133811 0 0 0.133811 25.3034 24.6653)"/>
  <circle cx="350.962" cy="430.961" id="e5_circle" r="18" stroke="black" stroke-width="6"
          style="fill:black;" transform="matrix(0.133811 0 0 0.133811 25.3034 24.6653)"/>
  <circle cx="402.794" cy="382.091" id="e6_circle" r="18" stroke="black" stroke-width="6"
          style="fill:black;" transform="matrix(0.133811 0 0 0.133811 25.3034 24.6653)"/></svg>
